<svg width="70" height="70" viewBox="0 0 70 70" fill="none" xmlns="http://www.w3.org/2000/svg">
<g filter="url(#filter0_d_26_309)">
<g clip-path="url(#clip0_26_309)">
<rect x="3" y="3" width="64" height="64" rx="32" fill="white"/>
<rect x="3" y="3" width="64" height="64" fill="url(#paint0_linear_26_309)"/>
<path d="M58.7282 19.9961H56.3102V24.9708H58.7282V19.9961Z" fill="#EB2629"/>
<path d="M30.1359 43.9427C30.1359 43.1671 30.3612 42.5463 30.8105 42.0805C31.2585 41.6092 31.814 41.3737 32.4796 41.3737C33.0275 41.3737 33.4742 41.5178 33.8211 41.8063V42.4814C33.4371 42.1294 32.9929 41.9534 32.4873 41.9534C31.9817 41.9534 31.5682 42.1372 31.2482 42.5052C30.9359 42.8653 30.7785 43.3443 30.7785 43.9427C30.7785 44.5489 30.9359 45.0319 31.2482 45.3919C31.5631 45.7545 31.9766 45.9357 32.4873 45.9357C32.9929 45.9357 33.4371 45.7597 33.8211 45.4077V46.0828C33.4767 46.3686 33.03 46.5115 32.4796 46.5115C31.8166 46.5115 31.2623 46.2785 30.8105 45.8126C30.3612 45.3389 30.1359 44.7155 30.1359 43.9427ZM17.1695 45.3244H17.1324L15.4172 42.6005V46.4401H14.7951V41.4491H15.3852L17.1567 44.3158L18.9231 41.4491H19.4825V46.4401H18.8604V42.6005L17.1695 45.3244ZM21.1247 41.4491H24.3004V42.0169H21.7558V43.5932H24.0662V44.165H21.7558V45.8643H24.3004V46.4401H21.1247V41.4491ZM25.6342 46.4401V41.4491H27.4607C27.974 41.4491 28.3785 41.5748 28.6755 41.8263C28.9724 42.0751 29.1196 42.4311 29.1196 42.8943C29.1196 43.2941 29.0082 43.6143 28.783 43.8552C28.5602 44.0961 28.2505 44.2444 27.8537 44.2999L29.3231 46.4401H28.5922L27.1625 44.3277H26.2742V46.4401H25.6342ZM38.6095 41.4491H39.2521V46.4401H38.6095V44.165H35.7871V46.4401H35.1471V41.4491H35.7871V43.5852H38.6095V41.4491ZM44.1993 46.4401L43.6195 44.9352H41.5625L40.9942 46.4401H40.3439L42.2972 41.4491H42.8962L44.8508 46.4401H44.1993ZM49.8134 41.4491V46.4401H49.3449L46.5532 42.4735V46.4401H45.9388V41.4491H46.5455L49.2066 45.2449V41.4491H49.8134ZM51.1049 42.0169V41.4491H55.2303V42.0169H53.4908V46.4401H52.847V42.0169H51.1049ZM42.5878 42.2432L41.7737 44.3754H43.4082L42.5878 42.2432ZM26.2742 42.009V43.7797H27.4454C27.7705 43.7797 28.0239 43.7018 28.207 43.5456C28.3913 43.3868 28.4847 43.1695 28.4847 42.8943C28.4847 42.619 28.3913 42.4033 28.207 42.2472C28.0239 42.0883 27.7705 42.009 27.4454 42.009H26.2742ZM30.3791 22.4109H36.2697C38.8758 22.4109 40.1788 23.5381 40.1788 25.572C40.1788 26.8241 39.727 27.6853 38.7068 28.1554C40.0098 28.6766 40.6319 29.6511 40.6319 31.1183C40.6319 33.5035 39.0473 34.9312 36.0444 34.9312H30.3791V22.4109ZM22.2191 22.4109L26.7516 34.9256H24.0316L23.1817 32.3535H18.3113L17.5164 34.9256H14.799L19.2738 22.4109H22.2191ZM50.6044 22.4109L55.1369 34.9256H52.4169L51.567 32.3535H46.694L45.9017 34.9256H43.1817L47.6578 22.4109H50.6044ZM35.8742 32.665C37.2899 32.665 37.9695 32.1892 37.9695 31.0447C37.9695 29.8211 37.2899 29.3906 35.8742 29.3906H32.8137V32.665H35.8742ZM18.991 30.2459H22.5033L20.7484 24.915L18.991 30.2459ZM47.375 30.2459H50.8873L49.1298 24.915L47.375 30.2459ZM35.7615 27.2489C37.007 27.2489 37.574 26.8467 37.574 25.8893C37.574 24.9148 37.007 24.5864 35.7615 24.5864H32.8137V27.2489H35.7615Z" fill="white"/>
</g>
<rect x="3" y="3" width="64" height="64" rx="32" stroke="white" stroke-width="1.5"/>
</g>
<defs>
<filter id="filter0_d_26_309" x="0.25" y="0.25" width="69.5" height="69.5" filterUnits="userSpaceOnUse" color-interpolation-filters="sRGB">
<feFlood flood-opacity="0" result="BackgroundImageFix"/>
<feColorMatrix in="SourceAlpha" type="matrix" values="0 0 0 0 0 0 0 0 0 0 0 0 0 0 0 0 0 0 127 0" result="hardAlpha"/>
<feOffset/>
<feGaussianBlur stdDeviation="1"/>
<feComposite in2="hardAlpha" operator="out"/>
<feColorMatrix type="matrix" values="0 0 0 0 0 0 0 0 0 0 0 0 0 0 0 0 0 0 0.1 0"/>
<feBlend mode="normal" in2="BackgroundImageFix" result="effect1_dropShadow_26_309"/>
<feBlend mode="normal" in="SourceGraphic" in2="effect1_dropShadow_26_309" result="shape"/>
</filter>
<linearGradient id="paint0_linear_26_309" x1="49.08" y1="67" x2="49.08" y2="3" gradientUnits="userSpaceOnUse">
<stop stop-color="#085673"/>
<stop offset="1" stop-color="#01C3CB"/>
</linearGradient>
<clipPath id="clip0_26_309">
<rect x="3" y="3" width="64" height="64" rx="32" fill="white"/>
</clipPath>
</defs>
</svg>
